<svg width="760" height="420" viewBox="0 0 760 420" fill="none" xmlns="http://www.w3.org/2000/svg" role="img" aria-labelledby="title desc">
<title id="title">Top languages for utshomh</title>
<desc id="desc">Animated local SVG top-language card generated from public repository language bytes.</desc>
<defs>
  <linearGradient id="bg" x1="0" y1="0" x2="760" y2="420" gradientUnits="userSpaceOnUse"><stop stop-color="#08111F"/><stop offset="0.55" stop-color="#111B34"/><stop offset="1" stop-color="#25103D"/></linearGradient>
  <linearGradient id="mesh" x1="0" y1="0" x2="760" y2="420" gradientUnits="userSpaceOnUse"><stop stop-color="#00FF88" stop-opacity="0.25"/><stop offset="0.45" stop-color="#22D3EE" stop-opacity="0.20"/><stop offset="1" stop-color="#A855F7" stop-opacity="0.30"/></linearGradient>
  <filter id="shadow" x="-20%" y="-20%" width="140%" height="140%"><feDropShadow dx="0" dy="14" stdDeviation="16" flood-color="#000000" flood-opacity="0.45"/></filter>
</defs>

<style>
  .float { animation: float 7s ease-in-out infinite; transform-origin: center; }
  .float2 { animation: float 9s ease-in-out infinite reverse; transform-origin: center; }
  .pulse { animation: pulse 2.6s ease-in-out infinite; }
  .dash { stroke-dasharray: 12 16; animation: dash 16s linear infinite; }
  .fadeIn { animation: fadeIn .9s ease-out both; }
  @keyframes float { 0%,100% { transform: translateY(0px); } 50% { transform: translateY(-10px); } }
  @keyframes pulse { 0%,100% { opacity: .35; } 50% { opacity: 1; } }
  @keyframes dash { to { stroke-dashoffset: -240; } }
  @keyframes fadeIn { from { opacity: 0; transform: translateY(8px); } to { opacity: 1; transform: translateY(0); } }
  @media (prefers-reduced-motion: reduce) { .float, .float2, .pulse, .dash, .fadeIn { animation: none; } }
</style>
<rect width="760" height="420" rx="30" fill="url(#bg)"/>
<path d="M0 118C112 28 189 142 295 82C401 22 488 16 579 91C655 153 704 93 760 54V420H0V118Z" fill="url(#mesh)" opacity="0.52"/>
<circle class="float" cx="650" cy="85" r="72" fill="#22D3EE" opacity="0.10"/>
<rect x="28" y="28" width="704" height="364" rx="26" fill="#0D1117" fill-opacity="0.78" stroke="#273550" filter="url(#shadow)"/>
<g font-family="Inter, Segoe UI, Arial, sans-serif">
  <text x="56" y="73" fill="#E6EDF3" font-size="30" font-weight="900">Top language mix</text>
  <text x="58" y="101" fill="#9CA3AF" font-family="Fira Code, Consolas, monospace" font-size="13">@utshomh + @utshowmh + @utsho-fleekbd · live language bytes · Jul 07, 2026</text>
  <g font-family="Inter, Segoe UI, Arial, sans-serif">
      <text x="62" y="142" fill="#D1D5DB" font-size="14" font-weight="800">TypeScript</text>
      <text x="678" y="142" fill="#9CA3AF" font-size="12" text-anchor="end">64%</text>
      <rect x="190" y="128" width="445" height="15" rx="8" fill="#202A3F"/>
      <rect x="190" y="128" width="250" height="15" rx="8" fill="#3178C6"><animate attributeName="width" from="0" to="250" dur="0.7s" fill="freeze"/></rect>
    </g>
<g font-family="Inter, Segoe UI, Arial, sans-serif">
      <text x="62" y="173" fill="#D1D5DB" font-size="14" font-weight="800">JavaScript</text>
      <text x="678" y="173" fill="#9CA3AF" font-size="12" text-anchor="end">19%</text>
      <rect x="190" y="159" width="445" height="15" rx="8" fill="#202A3F"/>
      <rect x="190" y="159" width="74" height="15" rx="8" fill="#F7DF1E"><animate attributeName="width" from="0" to="74" dur="0.7799999999999999s" fill="freeze"/></rect>
    </g>
<g font-family="Inter, Segoe UI, Arial, sans-serif">
      <text x="62" y="204" fill="#D1D5DB" font-size="14" font-weight="800">Rust</text>
      <text x="678" y="204" fill="#9CA3AF" font-size="12" text-anchor="end">13%</text>
      <rect x="190" y="190" width="445" height="15" rx="8" fill="#202A3F"/>
      <rect x="190" y="190" width="51" height="15" rx="8" fill="#DEA584"><animate attributeName="width" from="0" to="51" dur="0.86s" fill="freeze"/></rect>
    </g>
<g font-family="Inter, Segoe UI, Arial, sans-serif">
      <text x="62" y="235" fill="#D1D5DB" font-size="14" font-weight="800">CSS</text>
      <text x="678" y="235" fill="#9CA3AF" font-size="12" text-anchor="end">3%</text>
      <rect x="190" y="221" width="445" height="15" rx="8" fill="#202A3F"/>
      <rect x="190" y="221" width="12" height="15" rx="8" fill="#663399"><animate attributeName="width" from="0" to="12" dur="0.94s" fill="freeze"/></rect>
    </g>
<g font-family="Inter, Segoe UI, Arial, sans-serif">
      <text x="62" y="266" fill="#D1D5DB" font-size="14" font-weight="800">HTML</text>
      <text x="678" y="266" fill="#9CA3AF" font-size="12" text-anchor="end">1%</text>
      <rect x="190" y="252" width="445" height="15" rx="8" fill="#202A3F"/>
      <rect x="190" y="252" width="8" height="15" rx="8" fill="#E34C26"><animate attributeName="width" from="0" to="8" dur="1.02s" fill="freeze"/></rect>
    </g>
<g font-family="Inter, Segoe UI, Arial, sans-serif">
      <text x="62" y="297" fill="#D1D5DB" font-size="14" font-weight="800">Lua</text>
      <text x="678" y="297" fill="#9CA3AF" font-size="12" text-anchor="end">1%</text>
      <rect x="190" y="283" width="445" height="15" rx="8" fill="#202A3F"/>
      <rect x="190" y="283" width="8" height="15" rx="8" fill="#000080"><animate attributeName="width" from="0" to="8" dur="1.1s" fill="freeze"/></rect>
    </g>
<g font-family="Inter, Segoe UI, Arial, sans-serif">
      <text x="62" y="328" fill="#D1D5DB" font-size="14" font-weight="800">Python</text>
      <text x="678" y="328" fill="#9CA3AF" font-size="12" text-anchor="end">1%</text>
      <rect x="190" y="314" width="445" height="15" rx="8" fill="#202A3F"/>
      <rect x="190" y="314" width="8" height="15" rx="8" fill="#3572A5"><animate attributeName="width" from="0" to="8" dur="1.18s" fill="freeze"/></rect>
    </g>
<g font-family="Inter, Segoe UI, Arial, sans-serif">
      <text x="62" y="359" fill="#D1D5DB" font-size="14" font-weight="800">Go</text>
      <text x="678" y="359" fill="#9CA3AF" font-size="12" text-anchor="end">1%</text>
      <rect x="190" y="345" width="445" height="15" rx="8" fill="#202A3F"/>
      <rect x="190" y="345" width="8" height="15" rx="8" fill="#00ADD8"><animate attributeName="width" from="0" to="8" dur="1.26s" fill="freeze"/></rect>
    </g>
  <text x="58" y="375" fill="#8B949E" font-family="Fira Code, Consolas, monospace" font-size="11">Overflow fixed: taller canvas + safe row spacing. Workflow refreshes this from live public repos.</text>
</g>
</svg>